<svg width="38" height="62" viewBox="0 0 38 62" fill="none" xmlns="http://www.w3.org/2000/svg">
<path d="M37.8596 21.2019C37.6859 20.713 37.255 20.3598 36.7421 20.2864L21.0556 18.0317L28.2518 1.96938C28.444 1.53703 28.4059 1.03547 28.1473 0.637188C27.8901 0.240157 27.4479 0 26.9748 0H5.06807C4.3151 0 3.69776 0.596094 3.67104 1.34766L2.66229 29.8927C2.63682 30.6059 3.15385 31.2234 3.86026 31.325L14.7662 32.8945L0.174478 59.2358C-0.167397 59.8559 0.00635337 60.6316 0.579947 61.0469C0.827135 61.225 1.11245 61.3097 1.39776 61.3097C1.77635 61.3097 2.15213 61.1558 2.4262 60.8575L37.5728 22.6161C37.9231 22.2345 38.0332 21.6906 37.8596 21.2019Z" fill="#718F97"/>
</svg>
